<svg xmlns="http://www.w3.org/2000/svg" xmlns:xlink="http://www.w3.org/1999/xlink" width="362px" height="907px" version="1.1"><defs/><g transform="translate(0.5,0.5)"><rect x="1" y="1" width="120" height="60" fill="#ffffff" stroke="#000000" pointer-events="none"/><g fill="#000000" font-family="Georgia" text-anchor="middle" font-size="12px"><text x="60.75" y="34.75">Discover Bug</text></g><rect x="199" y="446" width="120" height="60" fill="#ffffff" stroke="#000000" pointer-events="none"/><g fill="#000000" font-family="Georgia" text-anchor="middle" font-size="12px"><text x="258.75" y="479.75">Develop Tests</text></g><path d="M 61 71 L 101 111 L 61 151 L 21 111 Z" fill="#ffffff" stroke="#000000" stroke-width="2" stroke-miterlimit="10" pointer-events="none"/><g fill="#000000" font-family="Georgia" text-anchor="middle" font-size="12px"><text x="60.75" y="107.75">Known</text><text x="60.75" y="121.75">Issue?</text></g><path d="M 61 71 L 61 61" fill="none" stroke="#000000" stroke-miterlimit="10" pointer-events="none"/><rect x="240" y="81" width="120" height="60" fill="#ffffff" stroke="#000000" pointer-events="none"/><g fill="#000000" font-family="Georgia" text-anchor="middle" font-size="12px"><text x="299.75" y="114.75">Create New Issue</text></g><path d="M 62 291 L 102 331 L 62 371 L 22 331 Z" fill="#ffffff" stroke="#000000" stroke-width="2" stroke-miterlimit="10" pointer-events="none"/><g fill="#000000" font-family="Georgia" text-anchor="middle" font-size="12px"><text x="61.75" y="334.75">Consensus?</text></g><path d="M 62 291 L 62 281" fill="none" stroke="#000000" stroke-miterlimit="10" pointer-events="none"/><path d="M 62 480 L 102 520 L 62 560 L 22 520 Z" fill="#ffffff" stroke="#000000" stroke-width="2" stroke-miterlimit="10" pointer-events="none"/><g fill="#000000" font-family="Georgia" text-anchor="middle" font-size="12px"><text x="61.75" y="516.75">Sufficient</text><text x="61.75" y="530.75">Tests?</text></g><path d="M 62 480 L 62 471" fill="none" stroke="#000000" stroke-miterlimit="10" pointer-events="none"/><path d="M 62 728 L 102 768 L 62 808 L 22 768 Z" fill="#ffffff" stroke="#000000" stroke-width="2" stroke-miterlimit="10" pointer-events="none"/><g fill="#000000" font-family="Georgia" text-anchor="middle" font-size="12px"><text x="61.75" y="764.75">Review</text><text x="61.75" y="778.75">Passes?</text></g><path d="M 62 728 L 62 717" fill="none" stroke="#000000" stroke-miterlimit="10" pointer-events="none"/><path d="M 259 520 L 299 560 L 259 600 L 219 560 Z" fill="#ffffff" stroke="#000000" stroke-width="2" stroke-miterlimit="10" pointer-events="none"/><g fill="#000000" font-family="Georgia" text-anchor="middle" font-size="12px"><text x="258.75" y="556.75">Tests</text><text x="258.75" y="570.75">Pass?</text></g><path d="M 101 111 L 233.63 111" fill="none" stroke="#000000" stroke-miterlimit="10" pointer-events="none"/><path d="M 238.88 111 L 231.88 114.5 L 233.63 111 L 231.88 107.5 Z" fill="#000000" stroke="#000000" stroke-miterlimit="10" pointer-events="none"/><g fill="#000000" font-family="Georgia" text-anchor="middle" font-size="11px"><rect fill="#ffffff" stroke="none" x="163" y="105" width="16" height="14" stroke-width="0"/><text x="170.5" y="114.5">No</text></g><path d="M 102 331 L 221 331 Q 231 331 231 321 L 231 261 Q 231 251 221 251 L 127.37 251" fill="none" stroke="#000000" stroke-miterlimit="10" pointer-events="none"/><path d="M 122.12 251 L 129.12 247.5 L 127.37 251 L 129.12 254.5 Z" fill="#000000" stroke="#000000" stroke-miterlimit="10" pointer-events="none"/><g fill="#000000" font-family="Georgia" text-anchor="middle" font-size="11px"><rect fill="#ffffff" stroke="none" x="115" y="325" width="16" height="14" stroke-width="0"/><text x="122.83" y="334.5">No</text></g><path d="M 61 371 L 61.84 404.63" fill="none" stroke="#000000" stroke-miterlimit="10" pointer-events="none"/><path d="M 61.97 409.88 L 58.3 402.97 L 61.84 404.63 L 65.3 402.8 Z" fill="#000000" stroke="#000000" stroke-miterlimit="10" pointer-events="none"/><g fill="#000000" font-family="Georgia" text-anchor="middle" font-size="11px"><rect fill="#ffffff" stroke="none" x="53" y="385" width="19" height="14" stroke-width="0"/><text x="61.5" y="394.5">Yes</text></g><path d="M 62 808 L 62 838.63" fill="none" stroke="#000000" stroke-miterlimit="10" pointer-events="none"/><path d="M 62 843.88 L 58.5 836.88 L 62 838.63 L 65.5 836.88 Z" fill="#000000" stroke="#000000" stroke-miterlimit="10" pointer-events="none"/><g fill="#000000" font-family="Georgia" text-anchor="middle" font-size="11px"><rect fill="#ffffff" stroke="none" x="53" y="821" width="19" height="14" stroke-width="0"/><text x="62" y="830">Yes</text></g><path d="M 62 560 L 212.63 560" fill="none" stroke="#000000" stroke-miterlimit="10" pointer-events="none"/><path d="M 217.88 560 L 210.88 563.5 L 212.63 560 L 210.88 556.5 Z" fill="#000000" stroke="#000000" stroke-miterlimit="10" pointer-events="none"/><g fill="#000000" font-family="Georgia" text-anchor="middle" font-size="11px"><rect fill="#ffffff" stroke="none" x="132" y="554" width="19" height="14" stroke-width="0"/><text x="140.5" y="563.5">Yes</text></g><path d="M 102 521 L 162 521 Q 172 521 172 511 L 172 428 Q 172 418 182 418 L 249 418 Q 259 418 259 428 L 259 439.63" fill="none" stroke="#000000" stroke-miterlimit="10" pointer-events="none"/><path d="M 259 444.88 L 255.5 437.88 L 259 439.63 L 262.5 437.88 Z" fill="#000000" stroke="#000000" stroke-miterlimit="10" pointer-events="none"/><g fill="#000000" font-family="Georgia" text-anchor="middle" font-size="11px"><rect fill="#ffffff" stroke="none" x="131" y="515" width="16" height="14" stroke-width="0"/><text x="138.65" y="524.5">No</text></g><path d="M 259 520 L 259 506" fill="none" stroke="#000000" stroke-miterlimit="10" pointer-events="none"/><path d="M 259 600 L 259 604 Q 259 608 249 608 L 72 608 Q 62 608 62 618 L 62 650.63" fill="none" stroke="#000000" stroke-miterlimit="10" pointer-events="none"/><path d="M 62 655.88 L 58.5 648.88 L 62 650.63 L 65.5 648.88 Z" fill="#000000" stroke="#000000" stroke-miterlimit="10" pointer-events="none"/><g fill="#000000" font-family="Georgia" text-anchor="middle" font-size="11px"><rect fill="#ffffff" stroke="none" x="164" y="602" width="19" height="14" stroke-width="0"/><text x="172.58" y="611.5">Yes</text></g><path d="M 299 560 L 341 560 Q 351 560 351 550 L 351 391 Q 351 381 341 381 L 102 381 Q 92 381 92 391 L 92 404.63" fill="none" stroke="#000000" stroke-miterlimit="10" pointer-events="none"/><path d="M 92 409.88 L 88.5 402.88 L 92 404.63 L 95.5 402.88 Z" fill="#000000" stroke="#000000" stroke-miterlimit="10" pointer-events="none"/><g fill="#000000" font-family="Georgia" text-anchor="middle" font-size="11px"><rect fill="#ffffff" stroke="none" x="325" y="554" width="16" height="14" stroke-width="0"/><text x="332.96" y="563.5">No</text></g><rect x="2" y="845" width="120" height="60" fill="#ffffff" stroke="#000000" pointer-events="none"/><g fill="#000000" font-family="Georgia" text-anchor="middle" font-size="12px"><text x="61.75" y="878.75">Code Merged!</text></g><path d="M 61 151 L 61 214.63" fill="none" stroke="#000000" stroke-miterlimit="10" pointer-events="none"/><path d="M 61 219.88 L 57.5 212.88 L 61 214.63 L 64.5 212.88 Z" fill="#000000" stroke="#000000" stroke-miterlimit="10" pointer-events="none"/><g fill="#000000" font-family="Georgia" text-anchor="middle" font-size="11px"><rect fill="#ffffff" stroke="none" x="52" y="180" width="19" height="14" stroke-width="0"/><text x="61" y="189.5">Yes</text></g><path d="M 300 141 L 300 161 Q 300 171 290 171 L 101 171 Q 91 171 91 181 L 91 214.63" fill="none" stroke="#000000" stroke-miterlimit="10" pointer-events="none"/><path d="M 91 219.88 L 87.5 212.88 L 91 214.63 L 94.5 212.88 Z" fill="#000000" stroke="#000000" stroke-miterlimit="10" pointer-events="none"/><rect x="180" y="738" width="120" height="60" fill="#ffffff" stroke="#000000" pointer-events="none"/><g fill="#000000" font-family="Georgia" text-anchor="middle" font-size="12px"><text x="239.75" y="771.75">Code Rejected</text></g><path d="M 240 647 L 280 687 L 240 727 L 200 687 Z" fill="#ffffff" stroke="#000000" stroke-width="2" stroke-miterlimit="10" pointer-events="none"/><g fill="#000000" font-family="Georgia" text-anchor="middle" font-size="12px"><text x="239.75" y="690.75">Resubmit?</text></g><path d="M 200 687 L 128.37 687" fill="none" stroke="#000000" stroke-miterlimit="10" pointer-events="none"/><path d="M 123.12 687 L 130.12 683.5 L 128.37 687 L 130.12 690.5 Z" fill="#000000" stroke="#000000" stroke-miterlimit="10" pointer-events="none"/><g fill="#000000" font-family="Georgia" text-anchor="middle" font-size="11px"><rect fill="#ffffff" stroke="none" x="162" y="681" width="19" height="14" stroke-width="0"/><text x="171" y="690.5">Yes</text></g><path d="M 240 738 L 240 728 L 240 737 L 240 727" fill="none" stroke="#000000" stroke-miterlimit="10" pointer-events="none"/><path d="M 280 687 L 321 687 Q 331 687 331 697 L 331 758 Q 331 768 321 768 L 306.37 768" fill="none" stroke="#000000" stroke-miterlimit="10" pointer-events="none"/><path d="M 301.12 768 L 308.12 764.5 L 306.37 768 L 308.12 771.5 Z" fill="#000000" stroke="#000000" stroke-miterlimit="10" pointer-events="none"/><g fill="#000000" font-family="Georgia" text-anchor="middle" font-size="11px"><rect fill="#ffffff" stroke="none" x="324" y="698" width="16" height="14" stroke-width="0"/><text x="331" y="707.84">No</text></g><rect x="1" y="221" width="120" height="60" fill="#ffffff" stroke="#000000" pointer-events="none"/><g fill="#000000" font-family="Georgia" text-anchor="middle" font-size="12px"><text x="60.75" y="247.75">Discuss and Assign</text><text x="60.75" y="261.75">Issue</text></g><rect x="2" y="411" width="120" height="60" fill="#ffffff" stroke="#000000" pointer-events="none"/><g fill="#000000" font-family="Georgia" text-anchor="middle" font-size="12px"><text x="61.75" y="444.75">Develop Code Fix</text></g><rect x="2" y="657" width="120" height="60" fill="#ffffff" stroke="#000000" pointer-events="none"/><g fill="#000000" font-family="Georgia" text-anchor="middle" font-size="12px"><text x="61.75" y="690.75">Submit Pull Request</text></g><path d="M 102 768 L 141 768 Q 151 768 161 768 L 173.63 768" fill="none" stroke="#000000" stroke-miterlimit="10" pointer-events="none"/><path d="M 178.88 768 L 171.88 771.5 L 173.63 768 L 171.88 764.5 Z" fill="#000000" stroke="#000000" stroke-miterlimit="10" pointer-events="none"/><g fill="#000000" font-family="Georgia" text-anchor="middle" font-size="11px"><rect fill="#ffffff" stroke="none" x="133" y="762" width="16" height="14" stroke-width="0"/><text x="141" y="771.5">No</text></g></g></svg>